<svg width="2593" height="354" viewBox="0 0 2593 354" fill="none" xmlns="http://www.w3.org/2000/svg">
<path d="M265.152 313.479C261.612 316.448 254.973 320.455 245.238 325.502C235.797 330.548 224.143 335.001 210.276 338.86C196.41 342.72 181.068 344.501 164.252 344.204C138.584 343.61 115.572 339.009 95.2147 330.4C75.1527 321.494 58.0409 309.472 43.8795 294.332C30.0131 279.192 19.392 261.826 12.0163 242.234C4.64051 222.642 0.952637 201.713 0.952637 179.449C0.952637 154.513 4.64051 131.655 12.0163 110.875C19.687 90.0956 30.4556 72.1359 44.322 56.9962C58.4835 41.8566 75.3002 30.1308 94.7722 21.8189C114.244 13.5069 135.781 9.35096 159.384 9.35096C181.216 9.35096 200.54 12.3195 217.357 18.2566C234.174 24.1937 247.893 30.5761 258.514 37.4038L233.289 98.4076C225.913 92.7673 216.03 86.9786 203.638 81.0415C191.542 74.8076 177.528 71.6906 161.596 71.6906C149.205 71.6906 137.257 74.3623 125.75 79.7057C114.539 84.7522 104.508 92.0252 95.6573 101.525C87.1014 111.024 80.3157 122.156 75.3002 134.921C70.2847 147.389 67.7769 161.044 67.7769 175.887C67.7769 191.62 69.9897 206.018 74.4151 219.079C79.1356 232.141 85.7738 243.421 94.3296 252.921C102.886 262.123 113.064 269.248 124.865 274.294C136.961 279.341 150.533 281.864 165.579 281.864C182.986 281.864 197.885 279.044 210.276 273.404C222.668 267.764 232.109 261.826 238.599 255.592L265.152 313.479Z" fill="#782E0C"/>
<path d="M567.97 12.9132V340.642H503.801V207.502H358.204V340.642H294.035V12.9132H358.204V145.162H503.801V12.9132H567.97Z" fill="#782E0C"/>
<path d="M596.556 177.223C596.556 154.662 600.834 133.288 609.39 113.102C617.946 92.9157 629.747 75.1044 644.793 59.6679C660.135 43.9346 677.837 31.6151 697.899 22.7094C717.961 13.8038 739.498 9.35096 762.51 9.35096C785.228 9.35096 806.617 13.8038 826.679 22.7094C846.741 31.6151 864.443 43.9346 879.785 59.6679C895.421 75.1044 907.518 92.9157 916.074 113.102C924.924 133.288 929.35 154.662 929.35 177.223C929.35 200.377 924.924 222.048 916.074 242.234C907.518 262.42 895.421 280.231 879.785 295.668C864.443 310.808 846.741 322.682 826.679 331.291C806.617 339.899 785.228 344.204 762.51 344.204C739.498 344.204 717.961 339.899 697.899 331.291C677.837 322.682 660.135 310.808 644.793 295.668C629.747 280.231 617.946 262.42 609.39 242.234C600.834 222.048 596.556 200.377 596.556 177.223ZM662.938 177.223C662.938 191.769 665.446 205.424 670.461 218.189C675.772 230.657 683 241.789 692.146 251.585C701.587 261.084 712.355 268.506 724.452 273.849C736.843 279.192 750.267 281.864 764.723 281.864C778.59 281.864 791.423 279.192 803.225 273.849C815.321 268.506 825.794 261.084 834.645 251.585C843.496 241.789 850.429 230.657 855.445 218.189C860.46 205.424 862.968 191.769 862.968 177.223C862.968 162.38 860.313 148.576 855.002 135.811C849.987 123.047 842.906 111.914 833.76 102.415C824.909 92.6189 814.436 85.0491 802.339 79.7057C790.243 74.3623 777.114 71.6906 762.953 71.6906C748.792 71.6906 735.663 74.3623 723.566 79.7057C711.47 85.0491 700.849 92.6189 691.703 102.415C682.557 111.914 675.477 123.047 670.461 135.811C665.446 148.576 662.938 162.38 662.938 177.223Z" fill="#782E0C"/>
<path d="M1202.21 313.479C1198.67 316.448 1192.03 320.455 1182.29 325.502C1172.85 330.548 1161.2 335.001 1147.33 338.86C1133.46 342.72 1118.12 344.501 1101.31 344.204C1075.64 343.61 1052.63 339.009 1032.27 330.4C1012.21 321.494 995.095 309.472 980.934 294.332C967.067 279.192 956.446 261.826 949.071 242.234C941.695 222.642 938.007 201.713 938.007 179.449C938.007 154.513 941.695 131.655 949.071 110.875C956.742 90.0956 967.51 72.1359 981.377 56.9962C995.538 41.8566 1012.35 30.1308 1031.83 21.8189C1051.3 13.5069 1072.84 9.35096 1096.44 9.35096C1118.27 9.35096 1137.59 12.3195 1154.41 18.2566C1171.23 24.1937 1184.95 30.5761 1195.57 37.4038L1170.34 98.4076C1162.97 92.7673 1153.08 86.9786 1140.69 81.0415C1128.6 74.8076 1114.58 71.6906 1098.65 71.6906C1086.26 71.6906 1074.31 74.3623 1062.8 79.7057C1051.59 84.7522 1041.56 92.0252 1032.71 101.525C1024.16 111.024 1017.37 122.156 1012.35 134.921C1007.34 147.389 1004.83 161.044 1004.83 175.887C1004.83 191.62 1007.04 206.018 1011.47 219.079C1016.19 232.141 1022.83 243.421 1031.38 252.921C1039.94 262.123 1050.12 269.248 1061.92 274.294C1074.02 279.341 1087.59 281.864 1102.63 281.864C1120.04 281.864 1134.94 279.044 1147.33 273.404C1159.72 267.764 1169.16 261.826 1175.65 255.592L1202.21 313.479Z" fill="#782E0C"/>
<path d="M1661.14 177.223C1661.14 154.662 1665.41 133.288 1673.97 113.102C1682.53 92.9157 1694.33 75.1044 1709.37 59.6679C1724.71 43.9346 1742.42 31.6151 1762.48 22.7094C1782.54 13.8038 1804.08 9.35096 1827.09 9.35096C1849.81 9.35096 1871.2 13.8038 1891.26 22.7094C1911.32 31.6151 1929.02 43.9346 1944.36 59.6679C1960 75.1044 1972.1 92.9157 1980.65 113.102C1989.5 133.288 1993.93 154.662 1993.93 177.223C1993.93 200.377 1989.5 222.048 1980.65 242.234C1972.1 262.42 1960 280.231 1944.36 295.668C1929.02 310.808 1911.32 322.682 1891.26 331.291C1871.2 339.899 1849.81 344.204 1827.09 344.204C1804.08 344.204 1782.54 339.899 1762.48 331.291C1742.42 322.682 1724.71 310.808 1709.37 295.668C1694.33 280.231 1682.53 262.42 1673.97 242.234C1665.41 222.048 1661.14 200.377 1661.14 177.223ZM1727.52 177.223C1727.52 191.769 1730.03 205.424 1735.04 218.189C1740.35 230.657 1747.58 241.789 1756.73 251.585C1766.17 261.084 1776.94 268.506 1789.03 273.849C1801.42 279.192 1814.85 281.864 1829.3 281.864C1843.17 281.864 1856 279.192 1867.8 273.849C1879.9 268.506 1890.37 261.084 1899.23 251.585C1908.08 241.789 1915.01 230.657 1920.02 218.189C1925.04 205.424 1927.55 191.769 1927.55 177.223C1927.55 162.38 1924.89 148.576 1919.58 135.811C1914.57 123.047 1907.49 111.914 1898.34 102.415C1889.49 92.6189 1879.02 85.0491 1866.92 79.7057C1854.82 74.3623 1841.69 71.6906 1827.53 71.6906C1813.37 71.6906 1800.24 74.3623 1788.15 79.7057C1776.05 85.0491 1765.43 92.6189 1756.28 102.415C1747.14 111.914 1740.06 123.047 1735.04 135.811C1730.03 148.576 1727.52 162.38 1727.52 177.223Z" fill="#FB7185"/>
<path d="M2314.14 354L2067.2 129.577L2086.23 140.264L2087.56 340.642H2022.5V0H2025.16L2266.79 223.532L2252.62 217.298L2251.3 12.9132H2315.91V354H2314.14Z" fill="#FB7185"/>
<path d="M2364.39 12.9132H2586.54V75.2528H2428.55V145.162H2568.4V207.502H2428.55V278.302H2592.74V340.642H2364.39V12.9132Z" fill="#FB7185"/>
<ellipse cx="1376.75" cy="278.01" rx="137.422" ry="67.7995" fill="#351303"/>
<ellipse cx="1377.48" cy="168.292" rx="161.479" ry="159.292" fill="#401B0A"/>
<path fill-rule="evenodd" clip-rule="evenodd" d="M1219.27 200.333C1217.13 189.983 1216 179.267 1216 168.292C1216 80.3176 1288.3 9 1377.48 9C1466.66 9 1538.96 80.3176 1538.96 168.292C1538.96 177.989 1538.08 187.484 1536.4 196.703C1510.23 254.631 1448.71 295.304 1376.98 295.304C1306.77 295.304 1246.33 256.323 1219.27 200.333Z" fill="#59250C"/>
<path fill-rule="evenodd" clip-rule="evenodd" d="M1377.48 157.722C1430.43 157.722 1473.35 118.554 1473.35 70.2383C1473.35 57.4554 1470.34 45.3128 1464.94 34.3665C1439.74 18.3157 1409.71 9 1377.48 9C1345.25 9 1315.22 18.3154 1290.02 34.3659C1284.62 45.3123 1281.61 57.4551 1281.61 70.2383C1281.61 118.554 1324.53 157.722 1377.48 157.722Z" fill="#782E0C"/>
<mask id="path-6-inside-1_254_162" fill="white">
<path fill-rule="evenodd" clip-rule="evenodd" d="M1508.84 81.8705C1510.29 80.9709 1511.26 79.3629 1511.26 77.529C1511.26 74.7106 1508.97 72.4258 1506.15 72.4258C1504.75 72.4258 1503.47 72.9957 1502.55 73.9174C1502.45 73.9741 1502.35 74.0335 1502.25 74.0956C1501.1 74.7771 1499.47 75.7889 1497.44 77.1434C1493.39 79.8516 1487.78 83.936 1481.42 89.4982C1468.71 100.616 1452.94 117.694 1440.74 141.545C1428.53 165.388 1422.68 191.429 1419.86 211.365C1418.44 221.361 1417.78 229.887 1417.47 235.929C1417.32 238.951 1417.25 241.355 1417.23 243.015C1417.21 243.845 1417.21 244.488 1417.21 244.931C1417.21 245.152 1417.21 245.322 1417.21 245.441L1417.21 245.52L1417.21 245.579L1417.21 245.618L1417.21 245.634C1417.21 245.634 1417.21 245.634 1417.22 245.634C1417.21 245.733 1417.21 245.833 1417.21 245.934C1417.21 248.752 1419.5 251.037 1422.31 251.037C1425.13 251.037 1427.42 248.752 1427.42 245.934C1427.42 245.789 1427.41 245.646 1427.4 245.504C1427.42 245.504 1427.42 245.504 1427.42 245.504L1427.42 245.501L1427.42 245.48L1427.42 245.378C1427.41 245.283 1427.41 245.137 1427.41 244.941C1427.41 244.549 1427.42 243.958 1427.43 243.182C1427.46 241.631 1427.52 239.344 1427.67 236.449C1427.96 230.655 1428.6 222.437 1429.96 212.795C1432.7 193.455 1438.33 168.645 1449.82 146.195C1461.31 123.754 1476.16 107.661 1488.14 97.1811C1494.13 91.9446 1499.38 88.1237 1503.12 85.6261C1504.98 84.3778 1506.47 83.4616 1507.47 82.8659C1507.97 82.5681 1508.35 82.3505 1508.59 82.2118C1508.72 82.1424 1508.81 82.0927 1508.86 82.0625L1508.92 82.0319L1508.92 82.0291C1508.92 82.0293 1508.92 82.0295 1508.84 81.8705Z"/>
</mask>
<path fill-rule="evenodd" clip-rule="evenodd" d="M1508.84 81.8705C1510.29 80.9709 1511.26 79.3629 1511.26 77.529C1511.26 74.7106 1508.97 72.4258 1506.15 72.4258C1504.75 72.4258 1503.47 72.9957 1502.55 73.9174C1502.45 73.9741 1502.35 74.0335 1502.25 74.0956C1501.1 74.7771 1499.47 75.7889 1497.44 77.1434C1493.39 79.8516 1487.78 83.936 1481.42 89.4982C1468.71 100.616 1452.94 117.694 1440.74 141.545C1428.53 165.388 1422.68 191.429 1419.86 211.365C1418.44 221.361 1417.78 229.887 1417.47 235.929C1417.32 238.951 1417.25 241.355 1417.23 243.015C1417.21 243.845 1417.21 244.488 1417.21 244.931C1417.21 245.152 1417.21 245.322 1417.21 245.441L1417.21 245.52L1417.21 245.579L1417.21 245.618L1417.21 245.634C1417.21 245.634 1417.21 245.634 1417.22 245.634C1417.21 245.733 1417.21 245.833 1417.21 245.934C1417.21 248.752 1419.5 251.037 1422.31 251.037C1425.13 251.037 1427.42 248.752 1427.42 245.934C1427.42 245.789 1427.41 245.646 1427.4 245.504C1427.42 245.504 1427.42 245.504 1427.42 245.504L1427.42 245.501L1427.42 245.48L1427.42 245.378C1427.41 245.283 1427.41 245.137 1427.41 244.941C1427.41 244.549 1427.42 243.958 1427.43 243.182C1427.46 241.631 1427.52 239.344 1427.67 236.449C1427.96 230.655 1428.6 222.437 1429.96 212.795C1432.7 193.455 1438.33 168.645 1449.82 146.195C1461.31 123.754 1476.16 107.661 1488.14 97.1811C1494.13 91.9446 1499.38 88.1237 1503.12 85.6261C1504.98 84.3778 1506.47 83.4616 1507.47 82.8659C1507.97 82.5681 1508.35 82.3505 1508.59 82.2118C1508.72 82.1424 1508.81 82.0927 1508.86 82.0625L1508.92 82.0319L1508.92 82.0291C1508.92 82.0293 1508.92 82.0295 1508.84 81.8705Z" fill="#FFFADD"/>
<path d="M1508.84 81.8705L1508.31 81.0203L1507.51 81.5154L1507.96 82.3436L1508.84 81.8705ZM1502.55 73.9174L1503.06 74.779L1503.16 74.7147L1503.25 74.6251L1502.55 73.9174ZM1502.25 74.0956L1502.76 74.9549L1502.76 74.9549L1502.25 74.0956ZM1497.44 77.1434L1496.89 76.3123L1496.89 76.3123L1497.44 77.1434ZM1481.42 89.4982L1482.08 90.251L1482.08 90.251L1481.42 89.4982ZM1440.74 141.545L1441.63 142.001L1440.74 141.545ZM1419.86 211.365L1420.85 211.505L1420.85 211.505L1419.86 211.365ZM1417.47 235.929L1418.47 235.98L1418.47 235.98L1417.47 235.929ZM1417.23 243.015L1418.23 243.031L1418.23 243.031L1417.23 243.015ZM1417.21 244.931L1418.21 244.932L1418.21 244.932L1417.21 244.931ZM1417.21 245.441L1416.21 245.447L1416.21 245.448L1417.21 245.441ZM1417.21 245.52L1416.21 245.527L1416.21 245.529L1417.21 245.52ZM1417.21 245.579L1416.21 245.588L1416.21 245.589L1417.21 245.579ZM1417.21 245.618L1416.21 245.628L1416.21 245.63L1417.21 245.618ZM1417.21 245.634L1416.21 245.646L1416.21 245.647L1417.21 245.634ZM1417.22 245.634L1418.22 245.692L1418.28 244.642L1417.23 244.634L1417.22 245.634ZM1427.4 245.504L1427.39 244.504L1426.31 244.512L1426.4 245.587L1427.4 245.504ZM1427.42 245.504L1426.42 245.516L1428.42 245.504H1427.42ZM1427.42 245.501L1426.42 245.511L1426.42 245.513L1427.42 245.501ZM1427.42 245.48L1426.42 245.487L1426.42 245.49L1427.42 245.48ZM1427.42 245.378L1426.42 245.384L1426.42 245.385L1427.42 245.378ZM1427.41 244.941L1426.41 244.94L1426.41 244.94L1427.41 244.941ZM1427.43 243.182L1426.43 243.166L1426.43 243.166L1427.43 243.182ZM1427.67 236.449L1426.67 236.398L1426.67 236.398L1427.67 236.449ZM1429.96 212.795L1428.97 212.655L1428.97 212.655L1429.96 212.795ZM1449.82 146.195L1448.93 145.74L1448.93 145.74L1449.82 146.195ZM1488.14 97.1811L1488.8 97.9338L1488.8 97.9338L1488.14 97.1811ZM1503.12 85.6261L1502.56 84.795L1502.56 84.795L1503.12 85.6261ZM1507.47 82.8659L1506.96 82.0066L1506.96 82.0066L1507.47 82.8659ZM1508.59 82.2118L1508.1 81.3405L1508.1 81.3405L1508.59 82.2118ZM1508.86 82.0625L1508.38 81.1846L1508.38 81.1857L1508.86 82.0625ZM1508.92 82.0319L1508.44 81.1528L1508.44 81.154L1508.92 82.0319ZM1508.92 82.0291L1509.4 82.9082L1508.45 81.1455L1508.92 82.0291ZM1510.26 77.529C1510.26 79.0024 1509.48 80.2954 1508.31 81.0203L1509.36 82.7206C1511.1 81.6463 1512.26 79.7234 1512.26 77.529H1510.26ZM1506.15 73.4258C1508.42 73.4258 1510.26 75.2628 1510.26 77.529H1512.26C1512.26 74.1583 1509.52 71.4258 1506.15 71.4258V73.4258ZM1503.25 74.6251C1504 73.8829 1505.02 73.4258 1506.15 73.4258V71.4258C1504.47 71.4258 1502.94 72.1085 1501.84 73.2097L1503.25 74.6251ZM1502.04 73.0558C1501.94 73.1133 1501.84 73.1734 1501.74 73.2363L1502.76 74.9549C1502.86 74.8935 1502.96 74.8349 1503.06 74.779L1502.04 73.0558ZM1501.74 73.2363C1500.58 73.9262 1498.93 74.9474 1496.89 76.3123L1498 77.9746C1500.01 76.6304 1501.63 75.628 1502.76 74.9549L1501.74 73.2363ZM1496.89 76.3123C1492.81 79.0411 1487.16 83.1514 1480.76 88.7455L1482.08 90.251C1488.4 84.7207 1493.98 80.662 1498 77.9746L1496.89 76.3123ZM1480.76 88.7455C1467.98 99.9254 1452.12 117.1 1439.84 141.09L1441.63 142.001C1453.76 118.288 1469.44 101.306 1482.08 90.251L1480.76 88.7455ZM1439.84 141.09C1427.57 165.069 1421.7 191.23 1418.87 211.225L1420.85 211.505C1423.66 191.627 1429.49 165.708 1441.63 142.001L1439.84 141.09ZM1418.87 211.225C1417.45 221.255 1416.78 229.812 1416.47 235.878L1418.47 235.98C1418.78 229.963 1419.44 221.466 1420.85 211.505L1418.87 211.225ZM1416.47 235.878C1416.32 238.913 1416.25 241.328 1416.23 242.998L1418.23 243.031C1418.25 241.382 1418.32 238.99 1418.47 235.98L1416.47 235.878ZM1416.23 242.998C1416.21 243.833 1416.21 244.482 1416.21 244.93L1418.21 244.932C1418.21 244.494 1418.21 243.856 1418.23 243.031L1416.23 242.998ZM1416.21 244.93C1416.21 245.153 1416.21 245.326 1416.21 245.447L1418.21 245.435C1418.21 245.319 1418.21 245.15 1418.21 244.932L1416.21 244.93ZM1416.21 245.448L1416.21 245.527L1418.21 245.513L1418.21 245.434L1416.21 245.448ZM1416.21 245.529L1416.21 245.588L1418.21 245.57L1418.21 245.512L1416.21 245.529ZM1416.21 245.589L1416.21 245.628L1418.21 245.607L1418.21 245.568L1416.21 245.589ZM1416.21 245.63L1416.21 245.646L1418.21 245.622L1418.21 245.606L1416.21 245.63ZM1416.21 245.647C1416.21 245.647 1416.21 245.647 1416.21 245.647C1416.21 245.647 1416.21 245.647 1416.21 245.647C1416.21 245.648 1416.21 245.649 1416.21 245.65C1416.21 245.651 1416.21 245.654 1416.21 245.658C1416.21 245.666 1416.21 245.678 1416.21 245.693C1416.21 245.723 1416.22 245.771 1416.23 245.829C1416.26 245.957 1416.31 246.103 1416.42 246.241C1416.6 246.488 1416.85 246.567 1416.91 246.586C1416.99 246.613 1417.06 246.622 1417.08 246.625C1417.11 246.629 1417.13 246.631 1417.14 246.632C1417.18 246.634 1417.21 246.634 1417.21 246.634L1417.23 244.634C1417.23 244.634 1417.23 244.634 1417.24 244.635C1417.24 244.635 1417.26 244.635 1417.28 244.637C1417.29 244.637 1417.32 244.639 1417.35 244.643C1417.37 244.646 1417.43 244.655 1417.52 244.682C1417.58 244.701 1417.82 244.78 1418.01 245.027C1418.23 245.318 1418.21 245.636 1418.21 245.621L1416.21 245.647ZM1416.22 245.577C1416.21 245.695 1416.21 245.814 1416.21 245.934H1418.21C1418.21 245.853 1418.21 245.772 1418.22 245.692L1416.22 245.577ZM1416.21 245.934C1416.21 249.304 1418.94 252.037 1422.31 252.037V250.037C1420.05 250.037 1418.21 248.2 1418.21 245.934H1416.21ZM1422.31 252.037C1425.68 252.037 1428.42 249.304 1428.42 245.934H1426.42C1426.42 248.2 1424.58 250.037 1422.31 250.037V252.037ZM1428.42 245.934C1428.42 245.761 1428.41 245.59 1428.4 245.421L1426.4 245.587C1426.41 245.701 1426.42 245.817 1426.42 245.934H1428.42ZM1427.41 246.504C1427.42 246.504 1427.41 246.504 1427.4 246.504C1427.4 246.504 1427.39 246.504 1427.38 246.503C1427.38 246.503 1427.36 246.502 1427.33 246.5C1427.32 246.499 1427.29 246.496 1427.25 246.49C1427.23 246.486 1427.15 246.473 1427.05 246.436C1426.97 246.403 1426.74 246.3 1426.57 246.036C1426.48 245.9 1426.45 245.766 1426.43 245.659C1426.42 245.609 1426.42 245.569 1426.42 245.543C1426.42 245.531 1426.42 245.52 1426.42 245.514C1426.42 245.511 1426.42 245.508 1426.42 245.507C1426.42 245.506 1426.42 245.505 1426.42 245.505C1426.42 245.504 1426.42 245.504 1426.42 245.504H1428.42C1428.42 245.504 1428.42 245.504 1428.42 245.503C1428.42 245.503 1428.42 245.502 1428.42 245.501C1428.42 245.5 1428.42 245.497 1428.42 245.494C1428.42 245.487 1428.42 245.477 1428.42 245.464C1428.41 245.439 1428.41 245.398 1428.4 245.349C1428.39 245.242 1428.35 245.108 1428.26 244.972C1428.1 244.708 1427.86 244.605 1427.78 244.572C1427.68 244.535 1427.61 244.522 1427.58 244.517C1427.54 244.512 1427.52 244.509 1427.5 244.508C1427.48 244.505 1427.45 244.505 1427.45 244.504C1427.44 244.504 1427.43 244.504 1427.43 244.504C1427.41 244.504 1427.4 244.504 1427.39 244.504L1427.41 246.504ZM1428.42 245.492L1428.42 245.489L1426.42 245.513L1426.42 245.516L1428.42 245.492ZM1428.42 245.491L1428.42 245.469L1426.42 245.49L1426.42 245.511L1428.42 245.491ZM1428.42 245.472L1428.42 245.37L1426.42 245.385L1426.42 245.487L1428.42 245.472ZM1428.42 245.371C1428.41 245.28 1428.41 245.136 1428.41 244.942L1426.41 244.94C1426.41 245.139 1426.41 245.287 1426.42 245.384L1428.42 245.371ZM1428.41 244.942C1428.41 244.555 1428.42 243.969 1428.43 243.198L1426.43 243.166C1426.42 243.947 1426.41 244.543 1426.41 244.94L1428.41 244.942ZM1428.43 243.198C1428.46 241.658 1428.52 239.383 1428.67 236.5L1426.67 236.398C1426.52 239.306 1426.46 241.604 1426.43 243.166L1428.43 243.198ZM1428.67 236.5C1428.96 230.731 1429.59 222.543 1430.95 212.935L1428.97 212.655C1427.6 222.332 1426.96 230.58 1426.67 236.398L1428.67 236.5ZM1430.95 212.935C1433.68 193.653 1439.29 168.964 1450.71 146.651L1448.93 145.74C1437.37 168.326 1431.72 193.256 1428.97 212.655L1430.95 212.935ZM1450.71 146.651C1462.13 124.347 1476.89 108.351 1488.8 97.9338L1487.48 96.4283C1475.43 106.971 1460.49 123.16 1448.93 145.74L1450.71 146.651ZM1488.8 97.9338C1494.75 92.7292 1499.97 88.9341 1503.67 86.4572L1502.56 84.795C1498.8 87.3132 1493.51 91.1599 1487.48 96.4283L1488.8 97.9338ZM1503.67 86.4572C1505.52 85.2193 1506.99 84.3125 1507.98 83.7252L1506.96 82.0066C1505.94 82.6107 1504.44 83.5363 1502.56 84.795L1503.67 86.4572ZM1507.98 83.7252C1508.47 83.4316 1508.84 83.2181 1509.08 83.0831L1508.1 81.3405C1507.85 81.483 1507.46 81.7046 1506.96 82.0066L1507.98 83.7252ZM1509.08 83.0831C1509.2 83.0156 1509.29 82.9677 1509.34 82.9394L1508.38 81.1857C1508.32 81.2176 1508.23 81.2692 1508.1 81.3405L1509.08 83.0831ZM1509.34 82.9405L1509.4 82.9099L1508.44 81.154L1508.38 81.1846L1509.34 82.9405ZM1509.39 82.9111L1509.4 82.9082L1508.45 81.1499L1508.44 81.1528L1509.39 82.9111ZM1508.45 81.1455C1508.43 81.1568 1508.59 81.0638 1508.8 81.0372C1509.04 81.0054 1509.25 81.0711 1509.4 81.1493C1509.52 81.2162 1509.6 81.2938 1509.64 81.3277C1509.67 81.3672 1509.7 81.4016 1509.72 81.4197C1509.74 81.4555 1509.76 81.4852 1509.77 81.4934C1509.77 81.5056 1509.78 81.5152 1509.78 81.5195C1509.79 81.5326 1509.8 81.541 1509.79 81.5294C1509.78 81.5136 1509.76 81.4773 1509.72 81.3973L1507.96 82.3436C1508 82.4227 1508.02 82.4658 1508.03 82.4896C1508.04 82.4978 1508.05 82.5161 1508.06 82.534C1508.06 82.5396 1508.07 82.5501 1508.08 82.5629C1508.08 82.5718 1508.1 82.6019 1508.13 82.638C1508.14 82.6562 1508.17 82.6908 1508.21 82.7303C1508.24 82.7643 1508.32 82.8419 1508.45 82.9089C1508.59 82.9871 1508.8 83.0528 1509.05 83.021C1509.26 82.9944 1509.41 82.9013 1509.39 82.9126L1508.45 81.1455Z" fill="#FFFADD" mask="url(#path-6-inside-1_254_162)"/>
<mask id="path-8-inside-2_254_162" fill="white">
<path fill-rule="evenodd" clip-rule="evenodd" d="M1269.27 55.4591C1269.89 54.4417 1270.16 53.2043 1269.94 51.9383C1269.46 49.161 1266.82 47.2983 1264.04 47.7779C1262.23 48.0902 1260.81 49.3182 1260.17 50.9037C1260.1 50.873 1260.1 50.8732 1260.1 50.8734L1260.09 50.8828L1260.08 50.9048L1260.05 50.9809C1260.03 51.0458 1259.99 51.1389 1259.95 51.2595C1259.85 51.5008 1259.72 51.8521 1259.55 52.3078C1259.22 53.219 1258.73 54.5478 1258.15 56.2479C1256.98 59.647 1255.39 64.5357 1253.7 70.5417C1250.33 82.5362 1246.51 99.0726 1244.82 117.149C1243.13 135.208 1243.71 151.883 1244.71 164.026C1245.21 170.105 1245.82 175.068 1246.31 178.525C1246.55 180.253 1246.76 181.606 1246.91 182.535C1246.99 183 1247.05 183.358 1247.09 183.605C1247.12 183.728 1247.13 183.824 1247.14 183.89L1247.16 183.968L1247.16 184.001C1247.16 184.001 1247.16 184.001 1247.17 183.999C1247.19 184.098 1247.2 184.197 1247.22 184.296C1247.7 187.074 1250.34 188.936 1253.11 188.457C1255.89 187.977 1257.75 185.337 1257.27 182.56C1257.25 182.417 1257.22 182.277 1257.18 182.139C1257.2 182.136 1257.2 182.136 1257.2 182.136L1257.2 182.126L1257.19 182.074C1257.18 182.024 1257.16 181.946 1257.15 181.84C1257.11 181.629 1257.05 181.307 1256.98 180.88C1256.84 180.025 1256.64 178.752 1256.41 177.107C1255.95 173.817 1255.37 169.049 1254.88 163.187C1253.92 151.448 1253.36 135.4 1254.98 118.102C1256.6 100.82 1260.26 84.9148 1263.53 73.3069C1265.16 67.5117 1266.69 62.809 1267.8 59.5672C1268.36 57.9467 1268.81 56.6927 1269.12 55.8511C1269.18 55.7085 1269.23 55.5777 1269.27 55.4591Z"/>
</mask>
<path fill-rule="evenodd" clip-rule="evenodd" d="M1269.27 55.4591C1269.89 54.4417 1270.16 53.2043 1269.94 51.9383C1269.46 49.161 1266.82 47.2983 1264.04 47.7779C1262.23 48.0902 1260.81 49.3182 1260.17 50.9037C1260.1 50.873 1260.1 50.8732 1260.1 50.8734L1260.09 50.8828L1260.08 50.9048L1260.05 50.9809C1260.03 51.0458 1259.99 51.1389 1259.95 51.2595C1259.85 51.5008 1259.72 51.8521 1259.55 52.3078C1259.22 53.219 1258.73 54.5478 1258.15 56.2479C1256.98 59.647 1255.39 64.5357 1253.7 70.5417C1250.33 82.5362 1246.51 99.0726 1244.82 117.149C1243.13 135.208 1243.71 151.883 1244.71 164.026C1245.21 170.105 1245.82 175.068 1246.31 178.525C1246.55 180.253 1246.76 181.606 1246.91 182.535C1246.99 183 1247.05 183.358 1247.09 183.605C1247.12 183.728 1247.13 183.824 1247.14 183.89L1247.16 183.968L1247.16 184.001C1247.16 184.001 1247.16 184.001 1247.17 183.999C1247.19 184.098 1247.2 184.197 1247.22 184.296C1247.7 187.074 1250.34 188.936 1253.11 188.457C1255.89 187.977 1257.75 185.337 1257.27 182.56C1257.25 182.417 1257.22 182.277 1257.18 182.139C1257.2 182.136 1257.2 182.136 1257.2 182.136L1257.2 182.126L1257.19 182.074C1257.18 182.024 1257.16 181.946 1257.15 181.84C1257.11 181.629 1257.05 181.307 1256.98 180.88C1256.84 180.025 1256.64 178.752 1256.41 177.107C1255.95 173.817 1255.37 169.049 1254.88 163.187C1253.92 151.448 1253.36 135.4 1254.98 118.102C1256.6 100.82 1260.26 84.9148 1263.53 73.3069C1265.16 67.5117 1266.69 62.809 1267.8 59.5672C1268.36 57.9467 1268.81 56.6927 1269.12 55.8511C1269.18 55.7085 1269.23 55.5777 1269.27 55.4591Z" fill="#FFFADD"/>
<path d="M1269.27 55.4591L1268.42 54.939L1268.37 55.0198L1268.33 55.1085L1269.27 55.4591ZM1260.17 50.9037L1259.81 51.8351L1260.73 52.1952L1261.1 51.2774L1260.17 50.9037ZM1260.1 50.8734L1261.03 51.2391L1261.03 51.2364L1260.1 50.8734ZM1260.09 50.8828L1259.16 50.5172L1259.16 50.5183L1260.09 50.8828ZM1260.08 50.9048L1259.15 50.5402L1259.15 50.5419L1260.08 50.9048ZM1260.05 50.9809L1259.12 50.618L1259.12 50.619L1260.05 50.9809ZM1259.95 51.2595L1260.88 51.6166L1260.88 51.6166L1259.95 51.2595ZM1259.55 52.3078L1260.49 52.6549L1260.49 52.6549L1259.55 52.3078ZM1258.15 56.2479L1257.2 55.9227L1257.2 55.9227L1258.15 56.2479ZM1253.7 70.5417L1252.74 70.2707L1252.74 70.2707L1253.7 70.5417ZM1244.82 117.149L1245.81 117.242L1245.81 117.242L1244.82 117.149ZM1244.71 164.026L1245.71 163.944L1244.71 164.026ZM1246.31 178.525L1247.3 178.386L1247.3 178.386L1246.31 178.525ZM1246.91 182.535L1247.9 182.373L1247.9 182.373L1246.91 182.535ZM1247.09 183.605L1248.08 183.432L1248.08 183.432L1247.09 183.605ZM1247.14 183.89L1246.16 184.068L1246.16 184.069L1247.14 183.89ZM1247.16 183.968L1246.17 184.147L1246.18 184.15L1247.16 183.968ZM1247.16 184.001L1246.18 184.182L1246.18 184.184L1247.16 184.001ZM1247.17 183.999L1248.17 183.887L1248.05 182.834L1247 183.014L1247.17 183.999ZM1257.18 182.139L1257 181.155L1255.94 181.348L1256.22 182.391L1257.18 182.139ZM1257.2 182.136L1256.22 182.317L1258.18 181.966L1257.2 182.136ZM1257.2 182.126L1256.21 182.305L1256.21 182.307L1257.2 182.126ZM1257.19 182.074L1256.2 182.252L1256.2 182.253L1257.19 182.074ZM1257.15 181.84L1258.13 181.668L1258.13 181.668L1257.15 181.84ZM1256.98 180.88L1256 181.042L1256 181.042L1256.98 180.88ZM1256.41 177.107L1255.42 177.246L1255.42 177.246L1256.41 177.107ZM1254.88 163.187L1255.88 163.105L1255.88 163.105L1254.88 163.187ZM1254.98 118.102L1253.99 118.009L1253.99 118.009L1254.98 118.102ZM1263.53 73.3069L1262.57 73.036L1262.57 73.036L1263.53 73.3069ZM1267.8 59.5672L1266.86 59.242L1266.86 59.242L1267.8 59.5672ZM1269.12 55.8511L1270.06 56.1982L1270.06 56.1982L1269.12 55.8511ZM1268.95 52.1085C1269.13 53.1271 1268.91 54.1204 1268.42 54.939L1270.12 55.9792C1270.86 54.7631 1271.19 53.2815 1270.92 51.7682L1268.95 52.1085ZM1264.21 48.7633C1266.44 48.3777 1268.57 49.8754 1268.95 52.1085L1270.92 51.7682C1270.35 48.4466 1267.19 46.2189 1263.87 46.7925L1264.21 48.7633ZM1261.1 51.2774C1261.62 49.9998 1262.76 49.0142 1264.21 48.7633L1263.87 46.7925C1261.71 47.1661 1260.01 48.6366 1259.25 50.5299L1261.1 51.2774ZM1260.54 49.9722C1260.5 49.9571 1260.48 49.9479 1260.46 49.9423C1260.46 49.9412 1260.44 49.9339 1260.42 49.9267C1260.41 49.9245 1260.4 49.92 1260.38 49.915C1260.37 49.9116 1260.33 49.8997 1260.28 49.89C1260.25 49.8851 1260.2 49.8768 1260.14 49.8742C1260.08 49.8719 1259.96 49.8714 1259.81 49.9152C1259.64 49.9667 1259.46 50.0716 1259.32 50.2442C1259.2 50.3841 1259.16 50.5313 1259.16 50.5104L1261.03 51.2364C1261.04 51.2156 1260.99 51.3627 1260.87 51.5027C1260.73 51.6752 1260.55 51.7801 1260.38 51.8316C1260.23 51.8754 1260.11 51.8749 1260.05 51.8726C1259.99 51.87 1259.94 51.8617 1259.91 51.8568C1259.86 51.8472 1259.82 51.8353 1259.81 51.832C1259.79 51.8271 1259.78 51.8228 1259.78 51.8208C1259.76 51.8144 1259.74 51.8089 1259.75 51.8116C1259.75 51.8135 1259.77 51.8195 1259.81 51.8351L1260.54 49.9722ZM1259.16 50.5078L1259.16 50.5172L1261.02 51.2485L1261.03 51.2391L1259.16 50.5078ZM1259.16 50.5183L1259.15 50.5402L1261.01 51.2694L1261.02 51.2474L1259.16 50.5183ZM1259.15 50.5419L1259.12 50.618L1260.99 51.3438L1261.01 51.2677L1259.15 50.5419ZM1259.12 50.619C1259.1 50.6855 1259.06 50.7802 1259.01 50.9024L1260.88 51.6166C1260.93 51.4976 1260.96 51.406 1260.99 51.3427L1259.12 50.619ZM1259.01 50.9024C1258.92 51.1468 1258.78 51.5015 1258.61 51.9606L1260.49 52.6549C1260.66 52.2027 1260.79 51.8547 1260.88 51.6166L1259.01 50.9024ZM1258.61 51.9606C1258.27 52.8786 1257.79 54.2148 1257.2 55.9227L1259.1 56.5731C1259.68 54.8809 1260.16 53.5593 1260.49 52.6549L1258.61 51.9606ZM1257.2 55.9227C1256.03 59.3372 1254.44 64.2441 1252.74 70.2707L1254.67 70.8126C1256.35 64.8273 1257.93 59.9569 1259.1 56.5731L1257.2 55.9227ZM1252.74 70.2707C1249.35 82.3031 1245.53 98.9014 1243.82 117.056L1245.81 117.242C1247.5 99.2438 1251.3 82.7692 1254.67 70.8126L1252.74 70.2707ZM1243.82 117.056C1242.12 135.19 1242.71 151.925 1243.72 164.108L1245.71 163.944C1244.71 151.84 1244.13 135.227 1245.81 117.242L1243.82 117.056ZM1243.72 164.108C1244.22 170.209 1244.83 175.191 1245.32 178.663L1247.3 178.386C1246.81 174.946 1246.21 170.002 1245.71 163.944L1243.72 164.108ZM1245.32 178.663C1245.56 180.4 1245.77 181.761 1245.93 182.697L1247.9 182.373C1247.75 181.451 1247.54 180.106 1247.3 178.386L1245.32 178.663ZM1245.93 182.697C1246 183.166 1246.06 183.528 1246.11 183.778L1248.08 183.432C1248.04 183.189 1247.97 182.834 1247.9 182.373L1245.93 182.697ZM1246.11 183.778C1246.13 183.903 1246.15 184 1246.16 184.068L1248.13 183.712C1248.12 183.647 1248.1 183.554 1248.08 183.432L1246.11 183.778ZM1246.16 184.069L1246.17 184.147L1248.14 183.789L1248.13 183.711L1246.16 184.069ZM1246.18 184.15L1246.18 184.182L1248.15 183.819L1248.14 183.787L1246.18 184.15ZM1246.18 184.184C1246.18 184.164 1246.2 184.31 1246.28 184.463C1246.38 184.65 1246.52 184.787 1246.68 184.874C1246.81 184.949 1246.93 184.975 1246.99 184.986C1247.06 184.997 1247.11 185 1247.14 185.001C1247.2 185.002 1247.24 184.998 1247.25 184.997C1247.27 184.995 1247.29 184.993 1247.3 184.992C1247.32 184.989 1247.34 184.985 1247.34 184.985L1247 183.014C1247 183.015 1247.01 183.012 1247.04 183.009C1247.04 183.008 1247.06 183.007 1247.08 183.005C1247.09 183.004 1247.13 183 1247.19 183.001C1247.22 183.002 1247.27 183.004 1247.34 183.016C1247.4 183.026 1247.52 183.053 1247.65 183.128C1247.81 183.215 1247.95 183.352 1248.05 183.539C1248.13 183.692 1248.15 183.838 1248.15 183.818L1246.18 184.184ZM1246.18 184.112C1246.19 184.23 1246.21 184.348 1246.23 184.466L1248.2 184.126C1248.19 184.046 1248.18 183.966 1248.17 183.887L1246.18 184.112ZM1246.23 184.466C1246.8 187.788 1249.96 190.016 1253.28 189.442L1252.94 187.471C1250.71 187.857 1248.59 186.359 1248.2 184.126L1246.23 184.466ZM1253.28 189.442C1256.61 188.869 1258.83 185.711 1258.26 182.389L1256.29 182.73C1256.67 184.963 1255.18 187.086 1252.94 187.471L1253.28 189.442ZM1258.26 182.389C1258.23 182.219 1258.19 182.052 1258.15 181.888L1256.22 182.391C1256.24 182.501 1256.27 182.614 1256.29 182.73L1258.26 182.389ZM1257.36 183.123C1257.37 183.121 1257.37 183.122 1257.36 183.123C1257.36 183.123 1257.35 183.124 1257.35 183.125C1257.34 183.126 1257.33 183.128 1257.31 183.131C1257.3 183.132 1257.28 183.134 1257.25 183.135C1257.23 183.136 1257.17 183.139 1257.09 183.13C1257.04 183.125 1256.79 183.099 1256.55 182.897C1256.41 182.78 1256.32 182.639 1256.27 182.503C1256.25 182.442 1256.23 182.391 1256.22 182.358C1256.22 182.341 1256.22 182.328 1256.22 182.32C1256.22 182.316 1256.21 182.312 1256.21 182.31C1256.21 182.309 1256.21 182.308 1256.21 182.308C1256.21 182.307 1256.21 182.307 1256.21 182.307L1258.18 181.966C1258.18 181.966 1258.18 181.966 1258.18 181.965C1258.18 181.965 1258.18 181.964 1258.18 181.963C1258.18 181.961 1258.18 181.957 1258.18 181.953C1258.18 181.945 1258.18 181.931 1258.17 181.915C1258.17 181.882 1258.15 181.831 1258.13 181.77C1258.08 181.634 1257.99 181.493 1257.85 181.375C1257.61 181.174 1257.36 181.148 1257.31 181.143C1257.23 181.134 1257.17 181.137 1257.15 181.138C1257.12 181.139 1257.1 181.141 1257.09 181.142C1257.07 181.145 1257.05 181.147 1257.05 181.148C1257.04 181.149 1257.04 181.15 1257.03 181.15C1257.02 181.152 1257.01 181.154 1257 181.155L1257.36 183.123ZM1258.18 181.955L1258.18 181.945L1256.21 182.307L1256.22 182.317L1258.18 181.955ZM1258.18 181.947L1258.17 181.894L1256.2 182.253L1256.21 182.305L1258.18 181.947ZM1258.17 181.896C1258.16 181.848 1258.15 181.772 1258.13 181.668L1256.16 182.013C1256.18 182.121 1256.19 182.2 1256.2 182.252L1258.17 181.896ZM1258.13 181.668C1258.09 181.46 1258.04 181.141 1257.97 180.717L1256 181.042C1256.07 181.473 1256.12 181.799 1256.16 182.013L1258.13 181.668ZM1257.97 180.717C1257.83 179.87 1257.63 178.604 1257.4 176.968L1255.42 177.246C1255.65 178.899 1255.86 180.18 1256 181.042L1257.97 180.717ZM1257.4 176.968C1256.94 173.695 1256.36 168.945 1255.88 163.105L1253.89 163.269C1254.37 169.152 1254.96 173.94 1255.42 177.246L1257.4 176.968ZM1255.88 163.105C1254.91 151.406 1254.36 135.419 1255.98 118.195L1253.99 118.009C1252.36 135.382 1252.92 151.491 1253.89 163.269L1255.88 163.105ZM1255.98 118.195C1257.59 100.991 1261.23 85.1478 1264.49 73.5779L1262.57 73.036C1259.29 84.6817 1255.61 100.649 1253.99 118.009L1255.98 118.195ZM1264.49 73.5779C1266.12 67.8033 1267.64 63.1188 1268.75 59.8924L1266.86 59.242C1265.74 62.4992 1264.2 67.2201 1262.57 73.036L1264.49 73.5779ZM1268.75 59.8924C1269.3 58.2797 1269.75 57.033 1270.06 56.1982L1268.19 55.5039C1267.87 56.3523 1267.42 57.6137 1266.86 59.242L1268.75 59.8924ZM1270.06 56.1982C1270.11 56.0568 1270.16 55.9272 1270.21 55.8097L1268.33 55.1085C1268.29 55.2282 1268.24 55.3601 1268.19 55.5039L1270.06 56.1982Z" fill="#FFFADD" mask="url(#path-8-inside-2_254_162)"/>
<mask id="path-10-inside-3_254_162" fill="white">
<path fill-rule="evenodd" clip-rule="evenodd" d="M1442.54 25.6116C1445.33 25.2489 1447.31 22.6891 1446.94 19.8941C1446.58 17.0991 1444.02 15.1274 1441.23 15.4901C1440.89 15.5334 1440.57 15.6079 1440.26 15.7104C1440.21 15.7194 1440.15 15.729 1440.08 15.7393C1439.55 15.8261 1438.79 15.9593 1437.82 16.1515C1435.88 16.5359 1433.11 17.1566 1429.69 18.1149C1422.85 20.0304 1413.39 23.3014 1402.78 28.7448C1381.52 39.6432 1355.6 59.2636 1336.9 94.0657C1318.23 128.798 1312.89 169.306 1312.12 200.818C1311.74 216.626 1312.51 230.293 1313.37 240.018C1313.8 244.883 1314.26 248.768 1314.61 251.449C1314.78 252.789 1314.93 253.829 1315.04 254.54C1315.09 254.896 1315.13 255.17 1315.16 255.358L1315.18 255.477L1315.2 255.575L1315.21 255.635L1315.21 255.639C1315.21 255.708 1315.22 255.776 1315.23 255.844C1315.59 258.639 1318.15 260.611 1320.95 260.248C1323.74 259.885 1325.71 257.326 1325.35 254.531C1325.33 254.348 1325.3 254.169 1325.25 253.994L1325.27 253.99C1325.28 253.989 1325.28 253.989 1325.28 253.989L1325.28 253.982L1325.27 253.943L1325.27 253.896C1325.26 253.862 1325.25 253.819 1325.24 253.767C1325.22 253.606 1325.18 253.361 1325.13 253.035C1325.04 252.381 1324.89 251.402 1324.73 250.125C1324.39 247.571 1323.95 243.827 1323.54 239.116C1322.7 229.688 1321.95 216.413 1322.33 201.065C1323.07 170.263 1328.31 131.6 1345.89 98.8983C1363.43 66.2663 1387.63 47.9784 1407.43 37.8271C1417.35 32.7456 1426.15 29.7064 1432.44 27.9428C1435.59 27.0616 1438.1 26.5006 1439.8 26.1631C1440.66 25.9944 1441.3 25.8816 1441.73 25.8127C1441.94 25.7783 1442.09 25.7548 1442.19 25.7407C1442.21 25.7378 1442.23 25.7353 1442.24 25.7332C1442.26 25.7302 1442.28 25.728 1442.29 25.7265L1442.3 25.7249C1442.3 25.7249 1442.3 25.725 1442.29 25.6382C1442.37 25.6314 1442.46 25.6226 1442.54 25.6116Z"/>
</mask>
<path fill-rule="evenodd" clip-rule="evenodd" d="M1442.54 25.6116C1445.33 25.2489 1447.31 22.6891 1446.94 19.8941C1446.58 17.0991 1444.02 15.1274 1441.23 15.4901C1440.89 15.5334 1440.57 15.6079 1440.26 15.7104C1440.21 15.7194 1440.15 15.729 1440.08 15.7393C1439.55 15.8261 1438.79 15.9593 1437.82 16.1515C1435.88 16.5359 1433.11 17.1566 1429.69 18.1149C1422.85 20.0304 1413.39 23.3014 1402.78 28.7448C1381.52 39.6432 1355.6 59.2636 1336.9 94.0657C1318.23 128.798 1312.89 169.306 1312.12 200.818C1311.74 216.626 1312.51 230.293 1313.37 240.018C1313.8 244.883 1314.26 248.768 1314.61 251.449C1314.78 252.789 1314.93 253.829 1315.04 254.54C1315.09 254.896 1315.13 255.17 1315.16 255.358L1315.18 255.477L1315.2 255.575L1315.21 255.635L1315.21 255.639C1315.21 255.708 1315.22 255.776 1315.23 255.844C1315.59 258.639 1318.15 260.611 1320.95 260.248C1323.74 259.885 1325.71 257.326 1325.35 254.531C1325.33 254.348 1325.3 254.169 1325.25 253.994L1325.27 253.99C1325.28 253.989 1325.28 253.989 1325.28 253.989L1325.28 253.982L1325.27 253.943L1325.27 253.896C1325.26 253.862 1325.25 253.819 1325.24 253.767C1325.22 253.606 1325.18 253.361 1325.13 253.035C1325.04 252.381 1324.89 251.402 1324.73 250.125C1324.39 247.571 1323.95 243.827 1323.54 239.116C1322.7 229.688 1321.95 216.413 1322.33 201.065C1323.07 170.263 1328.31 131.6 1345.89 98.8983C1363.43 66.2663 1387.63 47.9784 1407.43 37.8271C1417.35 32.7456 1426.15 29.7064 1432.44 27.9428C1435.59 27.0616 1438.1 26.5006 1439.8 26.1631C1440.66 25.9944 1441.3 25.8816 1441.73 25.8127C1441.94 25.7783 1442.09 25.7548 1442.19 25.7407C1442.21 25.7378 1442.23 25.7353 1442.24 25.7332C1442.26 25.7302 1442.28 25.728 1442.29 25.7265L1442.3 25.7249C1442.3 25.7249 1442.3 25.725 1442.29 25.6382C1442.37 25.6314 1442.46 25.6226 1442.54 25.6116Z" fill="#FFFADD"/>
<path d="M1440.26 15.7104L1440.42 16.698L1440.5 16.6851L1440.58 16.6591L1440.26 15.7104ZM1440.08 15.7393L1439.92 14.7524L1439.92 14.7524L1440.08 15.7393ZM1437.82 16.1515L1438.01 17.1325L1438.01 17.1325L1437.82 16.1515ZM1429.69 18.1149L1429.42 17.152L1429.42 17.152L1429.69 18.1149ZM1402.78 28.7448L1402.32 27.8549L1402.32 27.8549L1402.78 28.7448ZM1336.9 94.0657L1336.02 93.5923L1336.02 93.5923L1336.9 94.0657ZM1312.12 200.818L1313.12 200.842L1313.12 200.842L1312.12 200.818ZM1313.37 240.018L1314.37 239.929L1314.37 239.929L1313.37 240.018ZM1314.61 251.449L1315.6 251.319L1315.6 251.319L1314.61 251.449ZM1315.04 254.54L1314.05 254.688L1314.05 254.688L1315.04 254.54ZM1315.16 255.358L1314.18 255.514L1314.18 255.515L1315.16 255.358ZM1315.18 255.477L1314.19 255.634L1314.19 255.636L1315.18 255.477ZM1315.2 255.575L1314.21 255.734L1314.21 255.736L1315.2 255.575ZM1315.21 255.635L1314.22 255.796L1314.22 255.797L1315.21 255.635ZM1315.21 255.639L1316.2 255.55L1316.2 255.513L1316.19 255.477L1315.21 255.639ZM1325.25 253.994L1325.09 253.006L1324.03 253.178L1324.28 254.226L1325.25 253.994ZM1325.27 253.99L1325.12 253.002L1325.11 253.003L1325.27 253.99ZM1325.28 253.989L1324.3 254.164L1326.27 253.827L1325.28 253.989ZM1325.28 253.982L1324.29 254.143L1324.29 254.144L1325.28 253.982ZM1325.27 253.943L1324.29 254.102L1324.29 254.103L1325.27 253.943ZM1325.27 253.896L1324.28 254.054L1324.28 254.055L1325.27 253.896ZM1325.24 253.767L1324.26 253.922L1324.26 253.922L1325.24 253.767ZM1325.13 253.035L1324.14 253.182L1324.14 253.182L1325.13 253.035ZM1324.73 250.125L1323.74 250.255L1323.74 250.255L1324.73 250.125ZM1323.54 239.116L1324.53 239.027L1324.53 239.027L1323.54 239.116ZM1322.33 201.065L1321.33 201.041L1322.33 201.065ZM1345.89 98.8983L1345.01 98.4248L1345.01 98.4248L1345.89 98.8983ZM1407.43 37.8271L1407.89 38.717L1407.89 38.717L1407.43 37.8271ZM1432.44 27.9428L1432.71 28.9057L1432.71 28.9057L1432.44 27.9428ZM1439.8 26.1631L1439.61 25.1822L1439.61 25.1822L1439.8 26.1631ZM1441.73 25.8127L1441.57 24.8257L1441.57 24.8257L1441.73 25.8127ZM1442.19 25.7407L1442.04 24.7513L1442.04 24.7513L1442.19 25.7407ZM1442.24 25.7332L1442.1 24.7433L1442.1 24.7433L1442.24 25.7332ZM1442.29 25.7265L1442.15 24.736L1442.15 24.736L1442.29 25.7265ZM1442.3 25.7249L1442.44 26.7154L1442.17 24.7332L1442.3 25.7249ZM1442.29 25.6382L1442.21 24.6414L1441.15 24.7259L1441.3 25.7736L1442.29 25.6382ZM1445.95 20.0228C1446.24 22.2701 1444.66 24.3283 1442.41 24.6199L1442.67 26.6033C1446.01 26.1695 1448.37 23.1081 1447.94 19.7654L1445.95 20.0228ZM1441.35 16.4818C1443.6 16.1902 1445.66 17.7755 1445.95 20.0228L1447.94 19.7654C1447.5 16.4228 1444.44 14.0646 1441.1 14.4984L1441.35 16.4818ZM1440.58 16.6591C1440.83 16.5768 1441.09 16.5168 1441.35 16.4818L1441.1 14.4984C1440.7 14.55 1440.32 14.639 1439.95 14.7617L1440.58 16.6591ZM1440.11 14.7228C1440.05 14.732 1439.99 14.7419 1439.92 14.7524L1440.24 16.7263C1440.31 16.7162 1440.37 16.7068 1440.42 16.698L1440.11 14.7228ZM1439.92 14.7524C1439.38 14.8409 1438.61 14.9761 1437.63 15.1706L1438.01 17.1325C1438.97 16.9426 1439.72 16.8114 1440.24 16.7263L1439.92 14.7524ZM1437.63 15.1706C1435.66 15.5595 1432.87 16.1861 1429.42 17.152L1429.96 19.0778C1433.35 18.1271 1436.1 17.5122 1438.01 17.1325L1437.63 15.1706ZM1429.42 17.152C1422.53 19.0824 1413.01 22.3761 1402.32 27.8549L1403.23 29.6347C1413.78 24.2268 1423.18 20.9784 1429.96 19.0778L1429.42 17.152ZM1402.32 27.8549C1380.92 38.8266 1354.84 58.5775 1336.02 93.5923L1337.78 94.5392C1356.37 59.9498 1382.12 40.4599 1403.23 29.6347L1402.32 27.8549ZM1336.02 93.5923C1317.24 128.524 1311.89 169.212 1311.12 200.793L1313.12 200.842C1313.89 169.4 1319.21 129.073 1337.78 94.5392L1336.02 93.5923ZM1311.12 200.793C1310.74 216.647 1311.51 230.352 1312.37 240.106L1314.37 239.929C1313.5 230.233 1312.74 216.605 1313.12 200.842L1311.12 200.793ZM1312.37 240.106C1312.81 244.986 1313.26 248.885 1313.62 251.578L1315.6 251.319C1315.25 248.651 1314.8 244.779 1314.37 239.929L1312.37 240.106ZM1313.62 251.578C1313.79 252.925 1313.94 253.971 1314.05 254.688L1316.03 254.393C1315.92 253.687 1315.77 252.653 1315.6 251.319L1313.62 251.578ZM1314.05 254.688C1314.1 255.047 1314.15 255.323 1314.18 255.514L1316.15 255.202C1316.12 255.017 1316.08 254.746 1316.03 254.393L1314.05 254.688ZM1314.18 255.515L1314.19 255.634L1316.17 255.32L1316.15 255.201L1314.18 255.515ZM1314.19 255.636L1314.21 255.734L1316.19 255.416L1316.17 255.318L1314.19 255.636ZM1314.21 255.736L1314.22 255.796L1316.19 255.474L1316.18 255.414L1314.21 255.736ZM1314.22 255.797L1314.22 255.802L1316.19 255.477L1316.19 255.472L1314.22 255.797ZM1314.21 255.729C1314.22 255.81 1314.23 255.891 1314.24 255.973L1316.22 255.716C1316.22 255.66 1316.21 255.605 1316.2 255.55L1314.21 255.729ZM1314.24 255.973C1314.67 259.316 1317.73 261.674 1321.08 261.24L1320.82 259.257C1318.57 259.548 1316.51 257.963 1316.22 255.716L1314.24 255.973ZM1321.08 261.24C1324.42 260.806 1326.78 257.745 1326.34 254.402L1324.36 254.659C1324.65 256.907 1323.07 258.965 1320.82 259.257L1321.08 261.24ZM1326.34 254.402C1326.32 254.184 1326.28 253.97 1326.23 253.761L1324.28 254.226C1324.31 254.367 1324.34 254.512 1324.36 254.659L1326.34 254.402ZM1325.41 254.981L1325.43 254.978L1325.11 253.003L1325.09 253.006L1325.41 254.981ZM1325.43 254.978C1325.43 254.977 1325.42 254.979 1325.41 254.981C1325.4 254.982 1325.39 254.983 1325.38 254.984C1325.37 254.985 1325.34 254.988 1325.3 254.989C1325.28 254.99 1325.25 254.99 1325.2 254.986C1325.16 254.983 1325.06 254.973 1324.94 254.928C1324.8 254.878 1324.6 254.769 1324.45 254.542C1324.32 254.344 1324.29 254.14 1324.3 254.164L1326.26 253.814C1326.27 253.839 1326.25 253.635 1326.11 253.436C1325.96 253.21 1325.76 253.1 1325.62 253.05C1325.5 253.006 1325.4 252.996 1325.36 252.993C1325.32 252.989 1325.28 252.989 1325.26 252.99C1325.22 252.991 1325.19 252.994 1325.18 252.995C1325.17 252.996 1325.16 252.997 1325.15 252.998C1325.13 253 1325.12 253.002 1325.12 253.002L1325.43 254.978ZM1326.27 253.827L1326.27 253.82L1324.29 254.144L1324.29 254.152L1326.27 253.827ZM1326.27 253.821L1326.26 253.782L1324.29 254.103L1324.29 254.143L1326.27 253.821ZM1326.26 253.783L1326.25 253.737L1324.28 254.055L1324.29 254.102L1326.26 253.783ZM1326.25 253.737C1326.25 253.704 1326.24 253.662 1326.23 253.611L1324.26 253.922C1324.27 253.975 1324.27 254.019 1324.28 254.054L1326.25 253.737ZM1326.23 253.611C1326.21 253.453 1326.17 253.211 1326.12 252.887L1324.14 253.182C1324.19 253.512 1324.23 253.76 1324.26 253.922L1326.23 253.611ZM1326.12 252.887C1326.03 252.24 1325.89 251.267 1325.72 249.996L1323.74 250.255C1323.9 251.538 1324.05 252.523 1324.14 253.182L1326.12 252.887ZM1325.72 249.996C1325.39 247.454 1324.95 243.724 1324.53 239.027L1322.54 239.204C1322.96 243.931 1323.4 247.689 1323.74 250.255L1325.72 249.996ZM1324.53 239.027C1323.7 229.629 1322.96 216.392 1323.33 201.089L1321.33 201.041C1320.95 216.434 1321.7 229.747 1322.54 239.204L1324.53 239.027ZM1323.33 201.089C1324.07 170.357 1329.29 131.875 1346.77 99.3718L1345.01 98.4248C1327.32 131.326 1322.08 170.17 1321.33 201.041L1323.33 201.089ZM1346.77 99.3718C1364.19 66.9524 1388.23 48.7951 1407.89 38.717L1406.98 36.9372C1387.03 47.1618 1362.66 65.5803 1345.01 98.4248L1346.77 99.3718ZM1407.89 38.717C1417.73 33.6709 1426.47 30.6544 1432.71 28.9057L1432.17 26.9799C1425.83 28.7583 1416.96 31.8202 1406.98 36.9372L1407.89 38.717ZM1432.71 28.9057C1435.83 28.032 1438.32 27.4769 1440 27.144L1439.61 25.1822C1437.88 25.5243 1435.35 26.0911 1432.17 26.9799L1432.71 28.9057ZM1440 27.144C1440.84 26.9776 1441.48 26.8669 1441.89 26.7997L1441.57 24.8257C1441.13 24.8964 1440.47 25.0112 1439.61 25.1822L1440 27.144ZM1441.89 26.7997C1442.09 26.7661 1442.24 26.7434 1442.33 26.7301L1442.04 24.7513C1441.94 24.7661 1441.78 24.7904 1441.57 24.8257L1441.89 26.7997ZM1442.33 26.7301C1442.35 26.7274 1442.37 26.725 1442.38 26.7231L1442.1 24.7433C1442.08 24.7456 1442.06 24.7482 1442.04 24.7513L1442.33 26.7301ZM1442.38 26.7231C1442.4 26.7203 1442.42 26.7183 1442.42 26.717L1442.15 24.736C1442.14 24.7377 1442.12 24.7401 1442.1 24.7433L1442.38 26.7231ZM1442.42 26.7171L1442.44 26.7154L1442.16 24.7343L1442.15 24.736L1442.42 26.7171ZM1442.17 24.7332C1442.15 24.7356 1442.44 24.6776 1442.75 24.832C1443.03 24.9719 1443.15 25.1935 1443.19 25.2606C1443.23 25.3435 1443.25 25.4136 1443.26 25.4363C1443.27 25.467 1443.27 25.4916 1443.27 25.5035C1443.28 25.5277 1443.28 25.5463 1443.28 25.5502C1443.28 25.5568 1443.29 25.5612 1443.29 25.5616C1443.29 25.5625 1443.29 25.5593 1443.28 25.5485C1443.28 25.5383 1443.28 25.5237 1443.28 25.5028L1441.3 25.7736C1441.3 25.8159 1441.31 25.8459 1441.31 25.8666C1441.31 25.8677 1441.31 25.9035 1441.32 25.9435C1441.33 25.9562 1441.33 25.9813 1441.34 26.0123C1441.35 26.0354 1441.37 26.1057 1441.41 26.1888C1441.45 26.2561 1441.57 26.4777 1441.85 26.6177C1442.16 26.7721 1442.45 26.7141 1442.43 26.7165L1442.17 24.7332ZM1442.41 24.6199C1442.34 24.6288 1442.27 24.6359 1442.21 24.6414L1442.37 26.635C1442.47 26.6269 1442.57 26.6164 1442.67 26.6033L1442.41 24.6199Z" fill="#FFFADD" mask="url(#path-10-inside-3_254_162)"/>
</svg>
